# OBJ generated by ONSHAPE BY PTC INC, 1.191 Units = meters
mtllib rail_guide.mtl
g Part 1
v -0.190088 0.0024207 0.00318437 
v -0.186385 -0.00399413 -0.000216556 
v -0.186381 -0.004 -1.66533e-16 
v -0.187293 -0.0024207 -0.00318437 
v -0.190997 0.00399413 0.000216556 
v -0.191 0.004 -1.66533e-16 
v -0.186385 -0.00399413 0.000216556 
v -0.190997 0.00399413 -0.000216556 
v -0.186395 -0.00397655 -0.000432476 
v -0.190986 0.00397655 0.000432476 
v -0.186395 -0.00397655 0.000432476 
v -0.190986 0.00397655 -0.000432476 
v -0.186412 -0.00394731 -0.000647128 
v -0.19097 0.00394731 0.000647128 
v -0.186412 -0.00394731 0.000647128 
v -0.19097 0.00394731 -0.000647128 
v -0.186435 -0.00390648 -0.000859882 
v -0.190946 0.00390648 0.000859882 
v -0.186465 -0.0038542 -0.00107011 
v -0.190946 0.00390648 -0.000859882 
v -0.186435 -0.00390648 0.000859882 
v -0.190916 0.0038542 0.00107011 
v -0.186502 -0.00379061 -0.00127721 
v -0.190916 0.0038542 -0.00107011 
v -0.186465 -0.0038542 0.00107011 
v -0.190879 0.00379061 0.00127721 
v -0.186502 -0.00379061 0.00127721 
v -0.190879 0.00379061 -0.00127721 
v -0.186545 -0.00371591 -0.00148055 
v -0.190836 0.00371591 0.00148055 
v -0.186595 -0.0036303 -0.00167956 
v -0.190836 0.00371591 -0.00148055 
v -0.186545 -0.00371591 0.00148055 
v -0.190787 0.0036303 0.00167956 
v -0.18693 -0.00304865 0.00258955 
v -0.187102 -0.0027508 0.00290398 
v -0.187293 -0.0024207 0.00318437 
v -0.186595 -0.0036303 0.00167956 
v -0.190451 0.00304865 -0.00258955 
v -0.190279 0.0027508 -0.00290398 
v -0.190088 0.0024207 -0.00318437 
v -0.190731 0.00353405 0.00187363 
v -0.18966 0.00167956 0.0036303 
v -0.189881 0.00206222 0.00342743 
v -0.1875 -0.00206222 0.00342743 
v -0.18665 -0.00353405 -0.00187363 
v -0.187721 -0.00167956 -0.0036303 
v -0.1875 -0.00206222 -0.00342743 
v -0.189881 0.00206222 -0.00342743 
v -0.190787 0.0036303 -0.00167956 
v -0.189428 0.00127721 0.00379061 
v -0.187721 -0.00167956 0.0036303 
v -0.186712 -0.00342743 -0.00206222 
v -0.187953 -0.00127721 -0.00379061 
v -0.18966 0.00167956 -0.0036303 
v -0.190731 0.00353405 -0.00187363 
v -0.189187 0.000859882 0.00390648 
v -0.187953 -0.00127721 0.00379061 
v -0.18665 -0.00353405 0.00187363 
v -0.188194 -0.000859882 -0.00390648 
v -0.189428 0.00127721 -0.00379061 
v -0.190669 0.00342743 0.00206222 
v -0.18894 0.000432476 0.00397655 
v -0.188194 -0.000859882 0.00390648 
v -0.186712 -0.00342743 0.00206222 
v -0.187102 -0.0027508 -0.00290398 
v -0.188441 -0.000432476 -0.00397655 
v -0.189187 0.000859882 -0.00390648 
v -0.190602 0.00331076 0.00224475 
v -0.188691 9.94302e-20 0.004 
v -0.188441 -0.000432476 0.00397655 
v -0.186779 -0.00331076 -0.00224475 
v -0.190279 0.0027508 0.00290398 
v -0.188691 8.34218e-19 -0.004 
v -0.18894 0.000432476 -0.00397655 
v -0.190669 0.00342743 -0.00206222 
v -0.186779 -0.00331076 0.00224475 
v -0.190451 0.00304865 0.00258955 
v -0.190529 0.00318437 0.0024207 
v -0.186852 -0.00318437 0.0024207 
v -0.186852 -0.00318437 -0.0024207 
v -0.18693 -0.00304865 -0.00258955 
v -0.190529 0.00318437 -0.0024207 
v -0.190602 0.00331076 -0.00224475 
v 0.0319087 0.00394731 0.000647128 
v 0.0319594 0.00397655 0.000432476 
v 0.0319898 0.00399413 0.000216556 
v 0.0317475 0.0038542 0.00107011 
v 0.031838 0.00390648 0.000859882 
v 0.0315079 0.00371591 0.00148055 
v 0.0316373 0.00379061 0.00127721 
v 0.0311929 0.00353405 0.00187363 
v 0.0313597 0.0036303 0.00167956 
v 0.0308062 0.00331076 0.00224475 
v 0.0310083 0.00342743 0.00206222 
v 0.0303522 0.00304865 0.00258955 
v 0.0298363 0.0027508 0.00290398 
v 0.0292646 0.0024207 0.00318437 
v 0.0286437 0.00206222 0.00342743 
v 0.0279809 0.00167956 0.0036303 
v 0.027284 0.00127721 0.00379061 
v 0.0265612 0.000859882 0.00390648 
v 0.0258209 0.000432476 0.00397655 
v 0.0250718 -4.87891e-19 0.00397655 
v 0.0243227 -0.000432476 0.00397655 
v 0.0235824 -0.000859882 0.00390648 
v 0.0228596 -0.00127721 0.00379061 
v 0.0221627 -0.00167956 0.0036303 
v 0.0214999 -0.00206222 0.00342743 
v 0.020879 -0.0024207 0.00318437 
v 0.0203073 -0.0027508 0.00290398 
v 0.0197914 -0.00304865 0.00258955 
v 0.0193374 -0.00331076 0.00224475 
v 0.0189506 -0.00353405 0.00187363 
v 0.0191353 -0.00342743 0.00206222 
v 0.0186357 -0.00371591 0.00148055 
v 0.0187839 -0.0036303 0.00167956 
v 0.0183961 -0.0038542 0.00107011 
v 0.0185063 -0.00379061 0.00127721 
v 0.0182349 -0.00394731 0.000647128 
v 0.0183056 -0.00390648 0.000859882 
v 0.0181538 -0.00399413 0.000216556 
v 0.0181842 -0.00397655 0.000432476 
v 0.0181436 -0.004 -4.89859e-19 
v 0.0181538 -0.00399413 -0.000216556 
v 0.0182349 -0.00394731 -0.000647128 
v 0.0181842 -0.00397655 -0.000432476 
v 0.0183961 -0.0038542 -0.00107011 
v 0.0183056 -0.00390648 -0.000859882 
v 0.0186357 -0.00371591 -0.00148055 
v 0.0185063 -0.00379061 -0.00127721 
v 0.0189506 -0.00353405 -0.00187363 
v 0.0187839 -0.0036303 -0.00167956 
v 0.0193374 -0.00331076 -0.00224475 
v 0.0191353 -0.00342743 -0.00206222 
v 0.0197914 -0.00304865 -0.00258955 
v 0.0203073 -0.0027508 -0.00290398 
v 0.020879 -0.0024207 -0.00318437 
v 0.0214999 -0.00206222 -0.00342743 
v 0.0221627 -0.00167956 -0.0036303 
v 0.0228596 -0.00127721 -0.00379061 
v 0.0235824 -0.000859882 -0.00390648 
v 0.0243227 -0.000432476 -0.00397655 
v 0.0250718 -9.21572e-19 -0.00397655 
v 0.0258209 0.000432476 -0.00397655 
v 0.0265612 0.000859882 -0.00390648 
v 0.027284 0.00127721 -0.00379061 
v 0.0279809 0.00167956 -0.0036303 
v 0.0286437 0.00206222 -0.00342743 
v 0.0292646 0.0024207 -0.00318437 
v 0.0298363 0.0027508 -0.00290398 
v 0.0303522 0.00304865 -0.00258955 
v 0.0308062 0.00331076 -0.00224475 
v 0.0310083 0.00342743 -0.00206222 
v 0.0311929 0.00353405 -0.00187363 
v 0.0313597 0.0036303 -0.00167956 
v 0.0315079 0.00371591 -0.00148055 
v 0.0316373 0.00379061 -0.00127721 
v 0.0317475 0.0038542 -0.00107011 
v 0.031838 0.00390648 -0.000859882 
v 0.0319087 0.00394731 -0.000647128 
v 0.0319594 0.00397655 -0.000432476 
v 0.0319898 0.00399413 -0.000216556 
v 0.032 0.004 4.89859e-19 
vn -0.866025 -0.5 0 
vn 0 0.994138 0.108119 
vn 0 0.986827 0.161782 
vn 0 0.998533 0.0541389 
vn 0 0.976621 0.21497 
vn 0 0.96355 0.267528 
vn 0 0.947653 0.319302 
vn 0 0.928977 0.370138 
vn 0 0.907575 0.419889 
vn 0 0.883512 0.468408 
vn 0 0.856857 0.515554 
vn 0 0.827689 0.561187 
vn 0 0.796093 0.605174 
vn 0 0.762162 0.647386 
vn 0 0.687699 0.725995 
vn 0 0.605174 0.796093 
vn 0 0.515554 0.856857 
vn 0 0.419889 0.907575 
vn 0 0.319302 0.947653 
vn 0 0.21497 0.976621 
vn 0 0.108119 0.994138 
vn 0 0 1 
vn 0 -0.108119 0.994138 
vn 0 -0.21497 0.976621 
vn 0 -0.319302 0.947653 
vn 0 -0.419889 0.907575 
vn 0 -0.515554 0.856857 
vn 0 -0.605174 0.796093 
vn 0 -0.687699 0.725995 
vn 0 -0.762162 0.647386 
vn 0 -0.796093 0.605174 
vn 0 -0.827689 0.561187 
vn 0 -0.856857 0.515554 
vn 0 -0.883512 0.468408 
vn 0 -0.907575 0.419889 
vn 0 -0.928977 0.370138 
vn 0 -0.947653 0.319302 
vn 0 -0.96355 0.267528 
vn 0 -0.976621 0.21497 
vn 0 -0.986827 0.161782 
vn 0 -0.994138 0.108119 
vn 0 -0.998533 0.0541389 
vn 0 -1 -1.83697e-16 
vn 0 -0.998533 -0.0541389 
vn 0 -0.994138 -0.108119 
vn 0 -0.986827 -0.161782 
vn 0 -0.976621 -0.21497 
vn 0 -0.96355 -0.267528 
vn 0 -0.947653 -0.319302 
vn 0 -0.928977 -0.370138 
vn 0 -0.907575 -0.419889 
vn 0 -0.883512 -0.468408 
vn 0 -0.856857 -0.515554 
vn 0 -0.827689 -0.561187 
vn 0 -0.796093 -0.605174 
vn 0 -0.762162 -0.647386 
vn 0 -0.687699 -0.725995 
vn 0 -0.605174 -0.796093 
vn 0 -0.515554 -0.856857 
vn 0 -0.419889 -0.907575 
vn 0 -0.319302 -0.947653 
vn 0 -0.21497 -0.976621 
vn 0 -0.108119 -0.994138 
vn 0 1.22465e-16 -1 
vn 0 0.108119 -0.994138 
vn 0 0.21497 -0.976621 
vn 0 0.319302 -0.947653 
vn 0 0.419889 -0.907575 
vn 0 0.515554 -0.856857 
vn 0 0.605174 -0.796093 
vn 0 0.687699 -0.725995 
vn 0 0.762162 -0.647386 
vn 0 0.796093 -0.605174 
vn 0 0.827689 -0.561187 
vn 0 0.856857 -0.515554 
vn 0 0.883512 -0.468408 
vn 0 0.827689 -0.561187 
vn 0 0.907575 -0.419889 
vn 0 0.928977 -0.370138 
vn 0 0.883512 -0.468408 
vn 0 0.947653 -0.319302 
vn 0 0.96355 -0.267528 
vn 0 0.928977 -0.370138 
vn 0 0.976621 -0.21497 
vn 0 0.986827 -0.161782 
vn 0 0.96355 -0.267528 
vn 0 0.994138 -0.108119 
vn 0 0.998533 -0.0541389 
vn 0 0.986827 -0.161782 
vn 0 1 6.12323e-17 
vn 0 0.998533 -0.0541389 
vn 0 -0.762162 -0.647386 
vn 0.5 -0.866025 0 
usemtl 0.623529_0.666667_0.701961_0.000000_0.000000
o mesh0
f 1//1 2//1 3//1 
f 4//1 5//1 6//1 
f 3//1 7//1 1//1 
f 6//1 8//1 4//1 
f 1//1 9//1 2//1 
f 4//1 10//1 5//1 
f 7//1 11//1 1//1 
f 8//1 12//1 4//1 
f 1//1 13//1 9//1 
f 4//1 14//1 10//1 
f 11//1 15//1 1//1 
f 12//1 16//1 4//1 
f 1//1 17//1 13//1 
f 4//1 18//1 14//1 
f 1//1 19//1 17//1 
f 16//1 20//1 4//1 
f 15//1 21//1 1//1 
f 4//1 22//1 18//1 
f 1//1 23//1 19//1 
f 20//1 24//1 4//1 
f 21//1 25//1 1//1 
f 4//1 26//1 22//1 
f 25//1 27//1 1//1 
f 24//1 28//1 4//1 
f 1//1 29//1 23//1 
f 4//1 30//1 26//1 
f 1//1 31//1 29//1 
f 28//1 32//1 4//1 
f 27//1 33//1 1//1 
f 4//1 34//1 30//1 
f 35//1 36//1 37//1 
f 33//1 38//1 1//1 
f 39//1 40//1 41//1 
f 4//1 42//1 34//1 
f 35//1 43//1 44//1 
f 37//1 45//1 35//1 
f 1//1 46//1 31//1 
f 39//1 47//1 48//1 
f 41//1 49//1 39//1 
f 32//1 50//1 4//1 
f 35//1 51//1 43//1 
f 45//1 52//1 35//1 
f 1//1 53//1 46//1 
f 39//1 54//1 47//1 
f 49//1 55//1 39//1 
f 50//1 56//1 4//1 
f 35//1 57//1 51//1 
f 52//1 58//1 35//1 
f 38//1 59//1 1//1 
f 39//1 60//1 54//1 
f 55//1 61//1 39//1 
f 4//1 62//1 42//1 
f 35//1 63//1 57//1 
f 58//1 64//1 35//1 
f 59//1 65//1 1//1 
f 4//1 66//1 1//1 
f 39//1 67//1 60//1 
f 61//1 68//1 39//1 
f 4//1 69//1 62//1 
f 35//1 70//1 63//1 
f 64//1 71//1 35//1 
f 1//1 72//1 53//1 
f 1//1 73//1 4//1 
f 39//1 74//1 67//1 
f 68//1 75//1 39//1 
f 56//1 76//1 4//1 
f 71//1 70//1 35//1 
f 65//1 77//1 1//1 
f 73//1 78//1 4//1 
f 75//1 74//1 39//1 
f 4//1 79//1 69//1 
f 1//1 80//1 35//1 
f 1//1 81//1 72//1 
f 66//1 82//1 1//1 
f 4//1 83//1 39//1 
f 76//1 84//1 4//1 
f 77//1 80//1 1//1 
f 78//1 79//1 4//1 
f 84//1 83//1 4//1 
f 82//1 81//1 1//1 
f 44//1 1//1 35//1 
f 48//1 4//1 39//1 
o mesh1
f 10//2 14//3 85//3 
f 85//3 86//2 10//2 
f 87//4 5//4 10//2 
f 18//5 22//6 88//6 
f 88//6 89//5 18//5 
f 85//3 14//3 18//5 
f 26//7 30//8 90//8 
f 90//8 91//7 26//7 
f 88//6 22//6 26//7 
f 34//9 42//10 92//10 
f 92//10 93//9 34//9 
f 90//8 30//8 34//9 
f 62//11 69//12 94//12 
f 94//12 95//11 62//11 
f 92//10 42//10 62//11 
f 79//13 78//14 96//14 
f 94//12 69//12 79//13 
f 78//14 73//15 97//15 
f 73//15 1//16 98//16 
f 1//16 44//17 99//17 
f 44//17 43//18 100//18 
f 43//18 51//19 101//19 
f 51//19 57//20 102//20 
f 57//20 63//21 103//21 
f 63//21 70//22 104//22 
f 70//22 71//23 105//23 
f 71//23 64//24 106//24 
f 64//24 58//25 107//25 
f 58//25 52//26 108//26 
f 52//26 45//27 109//27 
f 45//27 37//28 110//28 
f 37//28 36//29 111//29 
f 36//29 35//30 112//30 
f 35//30 80//31 113//32 
f 113//32 112//30 35//30 
f 77//32 65//33 114//34 
f 114//34 115//33 77//32 
f 65//33 59//34 114//34 
f 59//34 38//35 116//36 
f 116//36 117//35 59//34 
f 38//35 33//36 116//36 
f 33//36 27//37 118//38 
f 118//38 119//37 33//36 
f 27//37 25//38 118//38 
f 25//38 21//39 120//40 
f 120//40 121//39 25//38 
f 21//39 15//40 120//40 
f 15//40 11//41 122//42 
f 122//42 123//41 15//40 
f 11//41 7//42 122//42 
f 7//42 3//43 124//43 
f 2//44 125//44 124//43 
f 124//43 3//43 2//44 
f 9//45 126//46 127//45 
f 127//45 2//44 9//45 
f 9//45 13//46 126//46 
f 17//47 128//48 129//47 
f 129//47 13//46 17//47 
f 17//47 19//48 128//48 
f 23//49 130//50 131//49 
f 131//49 19//48 23//49 
f 23//49 29//50 130//50 
f 31//51 132//52 133//51 
f 133//51 29//50 31//51 
f 31//51 46//52 132//52 
f 53//53 134//54 135//53 
f 135//53 46//52 53//53 
f 53//53 72//54 134//54 
f 81//55 136//56 134//54 
f 134//54 72//54 81//55 
f 66//57 137//57 136//56 
f 4//58 138//58 137//57 
f 48//59 139//59 138//58 
f 47//60 140//60 139//59 
f 54//61 141//61 140//60 
f 60//62 142//62 141//61 
f 67//63 143//63 142//62 
f 74//64 144//64 143//63 
f 75//65 145//65 144//64 
f 68//66 146//66 145//65 
f 61//67 147//67 146//66 
f 55//68 148//68 147//67 
f 49//69 149//69 148//68 
f 41//70 150//70 149//69 
f 40//71 151//71 150//70 
f 39//72 152//72 151//71 
f 83//73 153//74 152//72 
f 152//72 39//72 83//73 
f 76//75 154//75 153//74 
f 76//75 155//76 154//75 
f 153//74 84//77 76//75 
f 50//78 156//78 155//76 
f 50//78 157//79 156//78 
f 155//76 56//80 50//78 
f 28//81 158//81 157//79 
f 28//81 159//82 158//81 
f 157//79 32//83 28//81 
f 20//84 160//84 159//82 
f 20//84 161//85 160//84 
f 159//82 24//86 20//84 
f 12//87 162//87 161//85 
f 12//87 163//88 162//87 
f 161//85 16//89 12//87 
f 6//90 5//4 87//4 
f 6//90 164//90 163//88 
f 163//88 8//91 6//90 
f 87//4 164//90 6//90 
f 12//87 8//91 163//88 
f 20//84 16//89 161//85 
f 28//81 24//86 159//82 
f 50//78 32//83 157//79 
f 76//75 56//80 155//76 
f 83//73 84//77 153//74 
f 151//71 40//71 39//72 
f 150//70 41//70 40//71 
f 149//69 49//69 41//70 
f 148//68 55//68 49//69 
f 147//67 61//67 55//68 
f 146//66 68//66 61//67 
f 145//65 75//65 68//66 
f 144//64 74//64 75//65 
f 143//63 67//63 74//64 
f 142//62 60//62 67//63 
f 141//61 54//61 60//62 
f 140//60 47//60 54//61 
f 139//59 48//59 47//60 
f 138//58 4//58 48//59 
f 137//57 66//57 4//58 
f 136//56 82//92 66//57 
f 81//55 82//92 136//56 
f 135//53 132//52 46//52 
f 133//51 130//50 29//50 
f 131//49 128//48 19//48 
f 129//47 126//46 13//46 
f 127//45 125//44 2//44 
f 124//43 122//42 7//42 
f 123//41 120//40 15//40 
f 121//39 118//38 25//38 
f 119//37 116//36 33//36 
f 117//35 114//34 59//34 
f 115//33 113//32 77//32 
f 80//31 77//32 113//32 
f 112//30 111//29 36//29 
f 111//29 110//28 37//28 
f 110//28 109//27 45//27 
f 109//27 108//26 52//26 
f 108//26 107//25 58//25 
f 107//25 106//24 64//24 
f 106//24 105//23 71//23 
f 105//23 104//22 70//22 
f 104//22 103//21 63//21 
f 103//21 102//20 57//20 
f 102//20 101//19 51//19 
f 101//19 100//18 43//18 
f 100//18 99//17 44//17 
f 99//17 98//16 1//16 
f 98//16 97//15 73//15 
f 97//15 96//14 78//14 
f 96//14 94//12 79//13 
f 95//11 92//10 62//11 
f 93//9 90//8 34//9 
f 91//7 88//6 26//7 
f 89//5 85//3 18//5 
f 86//2 87//4 10//2 
o mesh2
f 122//93 124//93 125//93 
f 163//93 164//93 87//93 
f 127//93 123//93 122//93 
f 86//93 162//93 163//93 
f 125//93 127//93 122//93 
f 87//93 86//93 163//93 
f 126//93 120//93 123//93 
f 85//93 161//93 162//93 
f 127//93 126//93 123//93 
f 86//93 85//93 162//93 
f 129//93 121//93 120//93 
f 89//93 160//93 161//93 
f 126//93 129//93 120//93 
f 85//93 89//93 161//93 
f 128//93 118//93 121//93 
f 88//93 159//93 160//93 
f 129//93 128//93 121//93 
f 89//93 88//93 160//93 
f 131//93 119//93 118//93 
f 91//93 158//93 159//93 
f 128//93 131//93 118//93 
f 91//93 157//93 158//93 
f 130//93 116//93 119//93 
f 88//93 91//93 159//93 
f 115//93 134//93 136//93 
f 131//93 130//93 119//93 
f 154//93 94//93 96//93 
f 91//93 90//93 157//93 
f 136//93 137//93 115//93 
f 133//93 117//93 116//93 
f 141//93 111//93 112//93 
f 96//93 97//93 154//93 
f 93//93 156//93 157//93 
f 101//93 151//93 152//93 
f 115//93 135//93 134//93 
f 133//93 114//93 117//93 
f 141//93 110//93 111//93 
f 154//93 95//93 94//93 
f 90//93 93//93 157//93 
f 101//93 150//93 151//93 
f 137//93 138//93 115//93 
f 130//93 133//93 116//93 
f 112//93 113//93 141//93 
f 97//93 98//93 154//93 
f 92//93 155//93 156//93 
f 152//93 153//93 101//93 
f 138//93 139//93 115//93 
f 132//93 115//93 114//93 
f 141//93 109//93 110//93 
f 98//93 99//93 154//93 
f 92//93 154//93 155//93 
f 101//93 149//93 150//93 
f 139//93 140//93 115//93 
f 133//93 132//93 114//93 
f 141//93 108//93 109//93 
f 99//93 100//93 154//93 
f 93//93 92//93 156//93 
f 101//93 148//93 149//93 
f 132//93 135//93 115//93 
f 141//93 107//93 108//93 
f 92//93 95//93 154//93 
f 101//93 147//93 148//93 
f 113//93 115//93 141//93 
f 153//93 154//93 101//93 
f 140//93 141//93 115//93 
f 101//93 146//93 147//93 
f 143//93 144//93 104//93 
f 142//93 106//93 107//93 
f 100//93 101//93 154//93 
f 145//93 103//93 104//93 
f 105//93 142//93 143//93 
f 142//93 105//93 106//93 
f 101//93 102//93 146//93 
f 104//93 144//93 145//93 
f 141//93 142//93 107//93 
f 145//93 146//93 103//93 
f 102//93 103//93 146//93 
f 104//93 105//93 143//93 
