# OBJ generated by ONSHAPE BY PTC INC, 1.191 Units = meters
mtllib Pnuenmatic.mtl
g Part 1
v 0.0208769 -0.0022705 0 
v 0.020509 -0.00451438 0 
v 0.0199007 -0.00670533 0 
v 0.0190591 -0.00881767 0 
v 0.017994 -0.0108266 0 
v 0.016718 -0.0127087 0 
v 0.0152459 -0.0144417 0 
v 0.0135951 -0.0160054 0 
v 0.0117849 -0.0173815 0 
v 0.00983658 -0.0185538 0 
v 0.0077729 -0.0195085 0 
v 0.0056181 -0.0202345 0 
v 0.00339742 -0.0207234 0 
v 0.00113692 -0.0209692 0 
v -0.00113692 -0.0209692 0 
v -0.00339742 -0.0207234 0 
v -0.0056181 -0.0202345 0 
v -0.0077729 -0.0195085 0 
v -0.00983658 -0.0185538 0 
v -0.0117849 -0.0173815 0 
v -0.0135951 -0.0160054 0 
v -0.0152459 -0.0144417 0 
v -0.016718 -0.0127087 0 
v -0.017994 -0.0108266 0 
v -0.0190591 -0.00881767 0 
v -0.0199007 -0.00670533 0 
v -0.020509 -0.00451438 0 
v -0.0208769 -0.0022705 0 
v -0.021 1.28588e-18 0 
v -0.0208769 0.0022705 0 
v -0.020509 0.00451438 0 
v -0.0199007 0.00670533 0 
v -0.0190591 0.00881767 0 
v -0.017994 0.0108266 0 
v -0.016718 0.0127087 0 
v -0.0152459 0.0144417 0 
v -0.0135951 0.0160054 0 
v -0.0117849 0.0173815 0 
v -0.00983658 0.0185538 0 
v -0.0077729 0.0195085 0 
v -0.0056181 0.0202345 0 
v -0.00339742 0.0207234 0 
v -0.00113692 0.0209692 0 
v 0.00113692 0.0209692 0 
v 0.00339742 0.0207234 0 
v 0.0056181 0.0202345 0 
v 0.0077729 0.0195085 0 
v 0.00983658 0.0185538 0 
v 0.0117849 0.0173815 0 
v 0.0135951 0.0160054 0 
v 0.0152459 0.0144417 0 
v 0.016718 0.0127087 0 
v 0.017994 0.0108266 0 
v 0.0190591 0.00881767 0 
v 0.0199007 0.00670533 0 
v 0.020509 0.00451438 0 
v 0.0208769 0.0022705 0 
v 0.021 3.85764e-18 0 
v 0 1.28588e-18 0 
v -0.021 1.28588e-18 0.00875 
v -0.0208769 0.0022705 0.00875 
v -0.020509 0.00451438 0.00875 
v -0.0199007 0.00670533 0.00875 
v -0.0190591 0.00881767 0.00875 
v -0.017994 0.0108266 0.00875 
v -0.016718 0.0127087 0.00875 
v -0.0152459 0.0144417 0.00875 
v -0.0135951 0.0160054 0.00875 
v -0.0117849 0.0173815 0.00875 
v -0.00983658 0.0185538 0.00875 
v -0.0077729 0.0195085 0.00875 
v -0.0056181 0.0202345 0.00875 
v -0.00339742 0.0207234 0.00875 
v -0.00113692 0.0209692 0.00875 
v 0.00113692 0.0209692 0.00875 
v 0.00339742 0.0207234 0.00875 
v 0.0056181 0.0202345 0.00875 
v 0.0077729 0.0195085 0.00875 
v 0.00983658 0.0185538 0.00875 
v 0.0117849 0.0173815 0.00875 
v 0.0135951 0.0160054 0.00875 
v 0.0152459 0.0144417 0.00875 
v 0.016718 0.0127087 0.00875 
v 0.017994 0.0108266 0.00875 
v 0.0190591 0.00881767 0.00875 
v 0.0199007 0.00670533 0.00875 
v 0.020509 0.00451438 0.00875 
v 0.0208769 0.0022705 0.00875 
v 0.021 9.00115e-18 0.00875 
v 0.0208769 -0.0022705 0.00875 
v 0.020509 -0.00451438 0.00875 
v 0.0199007 -0.00670533 0.00875 
v 0.0190591 -0.00881767 0.00875 
v 0.017994 -0.0108266 0.00875 
v 0.016718 -0.0127087 0.00875 
v 0.0152459 -0.0144417 0.00875 
v 0.0135951 -0.0160054 0.00875 
v 0.0117849 -0.0173815 0.00875 
v 0.00983658 -0.0185538 0.00875 
v 0.0077729 -0.0195085 0.00875 
v 0.0056181 -0.0202345 0.00875 
v 0.00339742 -0.0207234 0.00875 
v 0.00113692 -0.0209692 0.00875 
v -0.00113692 -0.0209692 0.00875 
v -0.00339742 -0.0207234 0.00875 
v -0.0056181 -0.0202345 0.00875 
v -0.0077729 -0.0195085 0.00875 
v -0.00983658 -0.0185538 0.00875 
v -0.0117849 -0.0173815 0.00875 
v -0.0135951 -0.0160054 0.00875 
v -0.0152459 -0.0144417 0.00875 
v -0.016718 -0.0127087 0.00875 
v -0.017994 -0.0108266 0.00875 
v -0.0190591 -0.00881767 0.00875 
v -0.0199007 -0.00670533 0.00875 
v -0.020509 -0.00451438 0.00875 
v -0.0208769 -0.0022705 0.00875 
v -0.00234087 -0.00843106 0.00875 
v -0.00323871 -0.00812855 0.00875 
v -0.00141559 -0.00863473 0.00875 
v -0.00635246 -0.00601737 0.00875 
v -0.00696581 -0.00529527 0.00875 
v -0.00566463 -0.00666892 0.00875 
v -0.000473715 -0.00873717 0.00875 
v 0.000473715 -0.00873717 0.00875 
v 0.00141559 -0.00863473 0.00875 
v 0.00696581 0.00529527 0.00875 
v 0.0074975 0.0045111 0.00875 
v 0.00635246 0.00601737 0.00875 
v -0.00635246 0.00601737 0.00875 
v -0.00566463 0.00666892 0.00875 
v -0.00696581 0.00529527 0.00875 
v -0.00829197 -0.00279389 0.00875 
v -0.00854543 -0.00188099 0.00875 
v -0.00794128 -0.00367403 0.00875 
v -0.0074975 -0.0045111 0.00875 
v -0.00491039 -0.00724228 0.00875 
v -0.00409857 -0.00773073 0.00875 
v 0.00409857 -0.00773073 0.00875 
v 0.00323871 -0.00812855 0.00875 
v 0.00491039 -0.00724228 0.00875 
v 0.00794128 0.00367403 0.00875 
v 0.00491039 0.00724228 0.00875 
v 0.00566463 0.00666892 0.00875 
v 0.00409857 0.00773073 0.00875 
v -0.00323871 0.00812855 0.00875 
v -0.00234087 0.00843106 0.00875 
v -0.00409857 0.00773073 0.00875 
v -0.00491039 0.00724228 0.00875 
v -0.0074975 0.0045111 0.00875 
v 0.00234087 -0.00843106 0.00875 
v 0.00566463 -0.00666892 0.00875 
v 0.00696581 -0.00529527 0.00875 
v 0.00635246 -0.00601737 0.00875 
v 0.0074975 -0.0045111 0.00875 
v 0.00794128 -0.00367403 0.00875 
v 0.00829197 -0.00279389 0.00875 
v 0.00323871 0.00812855 0.00875 
v -0.00794128 0.00367403 0.00875 
v -0.00829197 0.00279389 0.00875 
v -0.00854543 0.00188099 0.00875 
v -0.00869871 0.000946041 0.00875 
v -0.00875 2.14313e-18 0.00875 
v 0.00234087 0.00843106 0.00875 
v 0.00141559 0.00863473 0.00875 
v 0.000473715 0.00873717 0.00875 
v -0.000473715 0.00873717 0.00875 
v 0.00869871 -0.000946041 0.00875 
v 0.00854543 -0.00188099 0.00875 
v 0.00875 3.2147e-18 0.00875 
v 0.00829197 0.00279389 0.00875 
v 0.00854543 0.00188099 0.00875 
v -0.00141559 0.00863473 0.00875 
v -0.00869871 -0.000946041 0.00875 
v 0.00869871 0.000946041 0.00875 
v -0.00875 2.14313e-18 0.15575 
v -0.00869871 0.000946041 0.15575 
v -0.00854543 0.00188099 0.15575 
v -0.00829197 0.00279389 0.15575 
v -0.00794128 0.00367403 0.15575 
v -0.0074975 0.0045111 0.15575 
v -0.00696581 0.00529527 0.15575 
v -0.00635246 0.00601737 0.15575 
v -0.00566463 0.00666892 0.15575 
v -0.00491039 0.00724228 0.15575 
v -0.00409857 0.00773073 0.15575 
v -0.00323871 0.00812855 0.15575 
v -0.00234087 0.00843106 0.15575 
v -0.00141559 0.00863473 0.15575 
v -0.000473715 0.00873717 0.15575 
v 0.000473715 0.00873717 0.15575 
v 0.00141559 0.00863473 0.15575 
v 0.00234087 0.00843106 0.15575 
v 0.00323871 0.00812855 0.15575 
v 0.00409857 0.00773073 0.15575 
v 0.00491039 0.00724228 0.15575 
v 0.00566463 0.00666892 0.15575 
v 0.00635246 0.00601737 0.15575 
v 0.00696581 0.00529527 0.15575 
v 0.0074975 0.0045111 0.15575 
v 0.00794128 0.00367403 0.15575 
v 0.00829197 0.00279389 0.15575 
v 0.00854543 0.00188099 0.15575 
v 0.00869871 0.000946041 0.15575 
v 0.00875 5.35783e-18 0.15575 
v 0.00869871 -0.000946041 0.15575 
v 0.00854543 -0.00188099 0.15575 
v 0.00829197 -0.00279389 0.15575 
v 0.00794128 -0.00367403 0.15575 
v 0.0074975 -0.0045111 0.15575 
v 0.00696581 -0.00529527 0.15575 
v 0.00635246 -0.00601737 0.15575 
v 0.00566463 -0.00666892 0.15575 
v 0.00491039 -0.00724228 0.15575 
v 0.00409857 -0.00773073 0.15575 
v 0.00323871 -0.00812855 0.15575 
v 0.00234087 -0.00843106 0.15575 
v 0.00141559 -0.00863473 0.15575 
v 0.000473715 -0.00873717 0.15575 
v -0.000473715 -0.00873717 0.15575 
v -0.00141559 -0.00863473 0.15575 
v -0.00234087 -0.00843106 0.15575 
v -0.00323871 -0.00812855 0.15575 
v -0.00409857 -0.00773073 0.15575 
v -0.00491039 -0.00724228 0.15575 
v -0.00566463 -0.00666892 0.15575 
v -0.00635246 -0.00601737 0.15575 
v -0.00696581 -0.00529527 0.15575 
v -0.0074975 -0.0045111 0.15575 
v -0.00794128 -0.00367403 0.15575 
v -0.00829197 -0.00279389 0.15575 
v -0.00854543 -0.00188099 0.15575 
v -0.00869871 -0.000946041 0.15575 
v 0 2.14313e-18 0.15575 
vn 0 0 -1 
vn -1 0 0 
vn -0.994138 0.108119 0 
vn -0.976621 0.21497 0 
vn -0.947653 0.319302 0 
vn -0.907575 0.419889 0 
vn -0.856857 0.515554 0 
vn -0.796093 0.605174 0 
vn -0.725995 0.687699 0 
vn -0.647386 0.762162 0 
vn -0.561187 0.827689 0 
vn -0.468408 0.883512 0 
vn -0.370138 0.928977 0 
vn -0.267528 0.96355 0 
vn -0.161782 0.986827 0 
vn -0.0541389 0.998533 0 
vn 0.0541389 0.998533 0 
vn 0.161782 0.986827 0 
vn 0.267528 0.96355 0 
vn 0.370138 0.928977 0 
vn 0.468408 0.883512 0 
vn 0.561187 0.827689 0 
vn 0.647386 0.762162 0 
vn 0.725995 0.687699 0 
vn 0.796093 0.605174 0 
vn 0.856857 0.515554 0 
vn 0.907575 0.419889 0 
vn 0.947653 0.319302 0 
vn 0.976621 0.21497 0 
vn 0.994138 0.108119 0 
vn 1 1.22465e-16 0 
vn 0.994138 -0.108119 0 
vn 0.976621 -0.21497 0 
vn 0.947653 -0.319302 0 
vn 0.907575 -0.419889 0 
vn 0.856857 -0.515554 0 
vn 0.796093 -0.605174 0 
vn 0.725995 -0.687699 0 
vn 0.647386 -0.762162 0 
vn 0.561187 -0.827689 0 
vn 0.468408 -0.883512 0 
vn 0.370138 -0.928977 0 
vn 0.267528 -0.96355 0 
vn 0.161782 -0.986827 0 
vn 0.0541389 -0.998533 0 
vn -0.0541389 -0.998533 0 
vn -0.161782 -0.986827 0 
vn -0.267528 -0.96355 0 
vn -0.370138 -0.928977 0 
vn -0.468408 -0.883512 0 
vn -0.561187 -0.827689 0 
vn -0.647386 -0.762162 0 
vn -0.725995 -0.687699 0 
vn -0.796093 -0.605174 0 
vn -0.856857 -0.515554 0 
vn -0.907575 -0.419889 0 
vn -0.947653 -0.319302 0 
vn -0.976621 -0.21497 0 
vn -0.994138 -0.108119 0 
vn 0 0 1 
vn -1 0 0 
vn -0.994138 0.108119 0 
vn -0.976621 0.21497 0 
vn -0.947653 0.319302 0 
vn -0.907575 0.419889 0 
vn -0.856857 0.515554 0 
vn -0.796093 0.605174 0 
vn -0.725995 0.687699 0 
vn -0.647386 0.762162 0 
vn -0.561187 0.827689 0 
vn -0.468408 0.883512 0 
vn -0.370138 0.928977 0 
vn -0.267528 0.96355 0 
vn -0.161782 0.986827 0 
vn -0.0541389 0.998533 0 
vn 0.0541389 0.998533 0 
vn 0.161782 0.986827 0 
vn 0.267528 0.96355 0 
vn 0.370138 0.928977 0 
vn 0.468408 0.883512 0 
vn 0.561187 0.827689 0 
vn 0.647386 0.762162 0 
vn 0.725995 0.687699 0 
vn 0.796093 0.605174 0 
vn 0.856857 0.515554 0 
vn 0.907575 0.419889 0 
vn 0.947653 0.319302 0 
vn 0.976621 0.21497 0 
vn 0.994138 0.108119 0 
vn 1 1.22465e-16 0 
vn 0.994138 -0.108119 0 
vn 0.976621 -0.21497 0 
vn 0.947653 -0.319302 0 
vn 0.907575 -0.419889 0 
vn 0.856857 -0.515554 0 
vn 0.796093 -0.605174 0 
vn 0.725995 -0.687699 0 
vn 0.647386 -0.762162 0 
vn 0.561187 -0.827689 0 
vn 0.468408 -0.883512 0 
vn 0.370138 -0.928977 0 
vn 0.267528 -0.96355 0 
vn 0.161782 -0.986827 0 
vn 0.0541389 -0.998533 0 
vn -0.0541389 -0.998533 0 
vn -0.161782 -0.986827 0 
vn -0.267528 -0.96355 0 
vn -0.370138 -0.928977 0 
vn -0.468408 -0.883512 0 
vn -0.561187 -0.827689 0 
vn -0.647386 -0.762162 0 
vn -0.725995 -0.687699 0 
vn -0.796093 -0.605174 0 
vn -0.856857 -0.515554 0 
vn -0.907575 -0.419889 0 
vn -0.947653 -0.319302 0 
vn -0.976621 -0.21497 0 
vn -0.994138 -0.108119 0 
vn 0 0 1 
usemtl 0.682353_0.333333_0.737255_0.000000_0.000000
o mesh0
f 59//1 1//1 2//1 
f 2//1 3//1 59//1 
f 3//1 4//1 59//1 
f 4//1 5//1 59//1 
f 5//1 6//1 59//1 
f 6//1 7//1 59//1 
f 7//1 8//1 59//1 
f 8//1 9//1 59//1 
f 9//1 10//1 59//1 
f 10//1 11//1 59//1 
f 11//1 12//1 59//1 
f 12//1 13//1 59//1 
f 13//1 14//1 59//1 
f 14//1 15//1 59//1 
f 15//1 16//1 59//1 
f 16//1 17//1 59//1 
f 17//1 18//1 59//1 
f 18//1 19//1 59//1 
f 19//1 20//1 59//1 
f 20//1 21//1 59//1 
f 21//1 22//1 59//1 
f 22//1 23//1 59//1 
f 23//1 24//1 59//1 
f 24//1 25//1 59//1 
f 25//1 26//1 59//1 
f 26//1 27//1 59//1 
f 27//1 28//1 59//1 
f 28//1 29//1 59//1 
f 29//1 30//1 59//1 
f 30//1 31//1 59//1 
f 31//1 32//1 59//1 
f 32//1 33//1 59//1 
f 33//1 34//1 59//1 
f 34//1 35//1 59//1 
f 35//1 36//1 59//1 
f 36//1 37//1 59//1 
f 37//1 38//1 59//1 
f 38//1 39//1 59//1 
f 39//1 40//1 59//1 
f 40//1 41//1 59//1 
f 41//1 42//1 59//1 
f 42//1 43//1 59//1 
f 43//1 44//1 59//1 
f 44//1 45//1 59//1 
f 45//1 46//1 59//1 
f 46//1 47//1 59//1 
f 47//1 48//1 59//1 
f 48//1 49//1 59//1 
f 49//1 50//1 59//1 
f 50//1 51//1 59//1 
f 51//1 52//1 59//1 
f 52//1 53//1 59//1 
f 53//1 54//1 59//1 
f 54//1 55//1 59//1 
f 55//1 56//1 59//1 
f 56//1 57//1 59//1 
f 57//1 58//1 59//1 
f 58//1 1//1 59//1 
o mesh1
f 29//2 60//2 61//3 
f 30//3 61//3 62//4 
f 31//4 62//4 63//5 
f 32//5 63//5 64//6 
f 33//6 64//6 65//7 
f 34//7 65//7 66//8 
f 35//8 66//8 67//9 
f 36//9 67//9 68//10 
f 37//10 68//10 69//11 
f 38//11 69//11 70//12 
f 39//12 70//12 71//13 
f 40//13 71//13 72//14 
f 41//14 72//14 73//15 
f 42//15 73//15 74//16 
f 43//16 74//16 75//17 
f 44//17 75//17 76//18 
f 45//18 76//18 77//19 
f 46//19 77//19 78//20 
f 47//20 78//20 79//21 
f 48//21 79//21 80//22 
f 49//22 80//22 81//23 
f 50//23 81//23 82//24 
f 51//24 82//24 83//25 
f 52//25 83//25 84//26 
f 53//26 84//26 85//27 
f 54//27 85//27 86//28 
f 55//28 86//28 87//29 
f 56//29 87//29 88//30 
f 57//30 88//30 89//31 
f 58//31 89//31 90//32 
f 1//32 90//32 91//33 
f 2//33 91//33 92//34 
f 3//34 92//34 93//35 
f 4//35 93//35 94//36 
f 5//36 94//36 95//37 
f 6//37 95//37 96//38 
f 7//38 96//38 97//39 
f 8//39 97//39 98//40 
f 9//40 98//40 99//41 
f 10//41 99//41 100//42 
f 11//42 100//42 101//43 
f 12//43 101//43 102//44 
f 13//44 102//44 103//45 
f 14//45 103//45 104//46 
f 15//46 104//46 105//47 
f 16//47 105//47 106//48 
f 17//48 106//48 107//49 
f 18//49 107//49 108//50 
f 19//50 108//50 109//51 
f 20//51 109//51 110//52 
f 21//52 110//52 111//53 
f 22//53 111//53 112//54 
f 23//54 112//54 113//55 
f 24//55 113//55 114//56 
f 25//56 114//56 115//57 
f 26//57 115//57 116//58 
f 27//58 116//58 117//59 
f 28//59 117//59 60//2 
f 60//2 29//2 28//59 
f 117//59 28//59 27//58 
f 116//58 27//58 26//57 
f 115//57 26//57 25//56 
f 114//56 25//56 24//55 
f 113//55 24//55 23//54 
f 112//54 23//54 22//53 
f 111//53 22//53 21//52 
f 110//52 21//52 20//51 
f 109//51 20//51 19//50 
f 108//50 19//50 18//49 
f 107//49 18//49 17//48 
f 106//48 17//48 16//47 
f 105//47 16//47 15//46 
f 104//46 15//46 14//45 
f 103//45 14//45 13//44 
f 102//44 13//44 12//43 
f 101//43 12//43 11//42 
f 100//42 11//42 10//41 
f 99//41 10//41 9//40 
f 98//40 9//40 8//39 
f 97//39 8//39 7//38 
f 96//38 7//38 6//37 
f 95//37 6//37 5//36 
f 94//36 5//36 4//35 
f 93//35 4//35 3//34 
f 92//34 3//34 2//33 
f 91//33 2//33 1//32 
f 90//32 1//32 58//31 
f 89//31 58//31 57//30 
f 88//30 57//30 56//29 
f 87//29 56//29 55//28 
f 86//28 55//28 54//27 
f 85//27 54//27 53//26 
f 84//26 53//26 52//25 
f 83//25 52//25 51//24 
f 82//24 51//24 50//23 
f 81//23 50//23 49//22 
f 80//22 49//22 48//21 
f 79//21 48//21 47//20 
f 78//20 47//20 46//19 
f 77//19 46//19 45//18 
f 76//18 45//18 44//17 
f 75//17 44//17 43//16 
f 74//16 43//16 42//15 
f 73//15 42//15 41//14 
f 72//14 41//14 40//13 
f 71//13 40//13 39//12 
f 70//12 39//12 38//11 
f 69//11 38//11 37//10 
f 68//10 37//10 36//9 
f 67//9 36//9 35//8 
f 66//8 35//8 34//7 
f 65//7 34//7 33//6 
f 64//6 33//6 32//5 
f 63//5 32//5 31//4 
f 62//4 31//4 30//3 
f 61//3 30//3 29//2 
o mesh2
f 106//60 118//60 119//60 
f 105//60 120//60 118//60 
f 111//60 121//60 122//60 
f 111//60 110//60 123//60 
f 118//60 106//60 105//60 
f 104//60 124//60 120//60 
f 104//60 103//60 125//60 
f 103//60 102//60 126//60 
f 83//60 127//60 128//60 
f 83//60 82//60 129//60 
f 67//60 130//60 131//60 
f 67//60 66//60 132//60 
f 115//60 133//60 134//60 
f 115//60 114//60 135//60 
f 113//60 136//60 135//60 
f 113//60 112//60 122//60 
f 123//60 121//60 111//60 
f 110//60 109//60 137//60 
f 109//60 108//60 138//60 
f 108//60 107//60 119//60 
f 120//60 105//60 104//60 
f 126//60 125//60 103//60 
f 99//60 139//60 140//60 
f 99//60 98//60 141//60 
f 84//60 128//60 142//60 
f 129//60 127//60 83//60 
f 80//60 143//60 144//60 
f 80//60 79//60 145//60 
f 71//60 146//60 147//60 
f 71//60 70//60 148//60 
f 69//60 149//60 148//60 
f 69//60 68//60 131//60 
f 132//60 130//60 67//60 
f 66//60 65//60 150//60 
f 135//60 133//60 115//60 
f 122//60 136//60 113//60 
f 137//60 123//60 110//60 
f 119//60 138//60 108//60 
f 125//60 124//60 104//60 
f 102//60 101//60 151//60 
f 141//60 139//60 99//60 
f 98//60 97//60 152//60 
f 95//60 153//60 154//60 
f 95//60 94//60 155//60 
f 93//60 156//60 155//60 
f 93//60 92//60 157//60 
f 128//60 84//60 83//60 
f 82//60 81//60 144//60 
f 145//60 143//60 80//60 
f 79//60 78//60 158//60 
f 148//60 146//60 71//60 
f 131//60 149//60 69//60 
f 150//60 132//60 66//60 
f 65//60 64//60 159//60 
f 63//60 160//60 159//60 
f 63//60 62//60 161//60 
f 61//60 162//60 161//60 
f 61//60 60//60 163//60 
f 135//60 114//60 113//60 
f 138//60 137//60 109//60 
f 151//60 126//60 102//60 
f 100//60 140//60 151//60 
f 152//60 141//60 98//60 
f 96//60 154//60 152//60 
f 155//60 153//60 95//60 
f 157//60 156//60 93//60 
f 144//60 129//60 82//60 
f 158//60 145//60 79//60 
f 77//60 164//60 158//60 
f 77//60 76//60 165//60 
f 75//60 166//60 165//60 
f 75//60 74//60 167//60 
f 148//60 70//60 69//60 
f 159//60 150//60 65//60 
f 161//60 160//60 63//60 
f 163//60 162//60 61//60 
f 122//60 112//60 111//60 
f 151//60 101//60 100//60 
f 152//60 97//60 96//60 
f 155//60 94//60 93//60 
f 90//60 168//60 169//60 
f 90//60 89//60 170//60 
f 86//60 171//60 172//60 
f 86//60 85//60 142//60 
f 144//60 81//60 80//60 
f 165//60 164//60 77//60 
f 167//60 166//60 75//60 
f 74//60 73//60 173//60 
f 131//60 68//60 67//60 
f 161//60 62//60 61//60 
f 117//60 174//60 163//60 
f 117//60 116//60 134//60 
f 119//60 107//60 106//60 
f 154//60 96//60 95//60 
f 91//60 169//60 157//60 
f 170//60 168//60 90//60 
f 142//60 171//60 86//60 
f 158//60 78//60 77//60 
f 173//60 167//60 74//60 
f 73//60 72//60 147//60 
f 159//60 64//60 63//60 
f 134//60 174//60 117//60 
f 140//60 100//60 99//60 
f 169//60 91//60 90//60 
f 142//60 85//60 84//60 
f 147//60 173//60 73//60 
f 163//60 60//60 117//60 
f 157//60 92//60 91//60 
f 88//60 175//60 170//60 
f 88//60 87//60 172//60 
f 165//60 76//60 75//60 
f 134//60 116//60 115//60 
f 172//60 175//60 88//60 
f 147//60 72//60 71//60 
f 172//60 87//60 86//60 
f 170//60 89//60 88//60 
o mesh3
f 163//61 176//61 177//62 
f 162//62 177//62 178//63 
f 161//63 178//63 179//64 
f 160//64 179//64 180//65 
f 159//65 180//65 181//66 
f 150//66 181//66 182//67 
f 132//67 182//67 183//68 
f 130//68 183//68 184//69 
f 131//69 184//69 185//70 
f 149//70 185//70 186//71 
f 148//71 186//71 187//72 
f 146//72 187//72 188//73 
f 147//73 188//73 189//74 
f 173//74 189//74 190//75 
f 167//75 190//75 191//76 
f 166//76 191//76 192//77 
f 165//77 192//77 193//78 
f 164//78 193//78 194//79 
f 158//79 194//79 195//80 
f 145//80 195//80 196//81 
f 143//81 196//81 197//82 
f 144//82 197//82 198//83 
f 129//83 198//83 199//84 
f 127//84 199//84 200//85 
f 128//85 200//85 201//86 
f 142//86 201//86 202//87 
f 171//87 202//87 203//88 
f 172//88 203//88 204//89 
f 175//89 204//89 205//90 
f 170//90 205//90 206//91 
f 168//91 206//91 207//92 
f 169//92 207//92 208//93 
f 157//93 208//93 209//94 
f 156//94 209//94 210//95 
f 155//95 210//95 211//96 
f 153//96 211//96 212//97 
f 154//97 212//97 213//98 
f 152//98 213//98 214//99 
f 141//99 214//99 215//100 
f 139//100 215//100 216//101 
f 140//101 216//101 217//102 
f 151//102 217//102 218//103 
f 126//103 218//103 219//104 
f 125//104 219//104 220//105 
f 124//105 220//105 221//106 
f 120//106 221//106 222//107 
f 118//107 222//107 223//108 
f 119//108 223//108 224//109 
f 138//109 224//109 225//110 
f 137//110 225//110 226//111 
f 123//111 226//111 227//112 
f 121//112 227//112 228//113 
f 122//113 228//113 229//114 
f 136//114 229//114 230//115 
f 135//115 230//115 231//116 
f 133//116 231//116 232//117 
f 134//117 232//117 233//118 
f 174//118 233//118 176//61 
f 176//61 163//61 174//118 
f 233//118 174//118 134//117 
f 232//117 134//117 133//116 
f 231//116 133//116 135//115 
f 230//115 135//115 136//114 
f 229//114 136//114 122//113 
f 228//113 122//113 121//112 
f 227//112 121//112 123//111 
f 226//111 123//111 137//110 
f 225//110 137//110 138//109 
f 224//109 138//109 119//108 
f 223//108 119//108 118//107 
f 222//107 118//107 120//106 
f 221//106 120//106 124//105 
f 220//105 124//105 125//104 
f 219//104 125//104 126//103 
f 218//103 126//103 151//102 
f 217//102 151//102 140//101 
f 216//101 140//101 139//100 
f 215//100 139//100 141//99 
f 214//99 141//99 152//98 
f 213//98 152//98 154//97 
f 212//97 154//97 153//96 
f 211//96 153//96 155//95 
f 210//95 155//95 156//94 
f 209//94 156//94 157//93 
f 208//93 157//93 169//92 
f 207//92 169//92 168//91 
f 206//91 168//91 170//90 
f 205//90 170//90 175//89 
f 204//89 175//89 172//88 
f 203//88 172//88 171//87 
f 202//87 171//87 142//86 
f 201//86 142//86 128//85 
f 200//85 128//85 127//84 
f 199//84 127//84 129//83 
f 198//83 129//83 144//82 
f 197//82 144//82 143//81 
f 196//81 143//81 145//80 
f 195//80 145//80 158//79 
f 194//79 158//79 164//78 
f 193//78 164//78 165//77 
f 192//77 165//77 166//76 
f 191//76 166//76 167//75 
f 190//75 167//75 173//74 
f 189//74 173//74 147//73 
f 188//73 147//73 146//72 
f 187//72 146//72 148//71 
f 186//71 148//71 149//70 
f 185//70 149//70 131//69 
f 184//69 131//69 130//68 
f 183//68 130//68 132//67 
f 182//67 132//67 150//66 
f 181//66 150//66 159//65 
f 180//65 159//65 160//64 
f 179//64 160//64 161//63 
f 178//63 161//63 162//62 
f 177//62 162//62 163//61 
o mesh4
f 234//119 204//119 203//119 
f 203//119 202//119 234//119 
f 202//119 201//119 234//119 
f 201//119 200//119 234//119 
f 200//119 199//119 234//119 
f 199//119 198//119 234//119 
f 198//119 197//119 234//119 
f 197//119 196//119 234//119 
f 196//119 195//119 234//119 
f 195//119 194//119 234//119 
f 194//119 193//119 234//119 
f 193//119 192//119 234//119 
f 192//119 191//119 234//119 
f 191//119 190//119 234//119 
f 190//119 189//119 234//119 
f 189//119 188//119 234//119 
f 188//119 187//119 234//119 
f 187//119 186//119 234//119 
f 186//119 185//119 234//119 
f 185//119 184//119 234//119 
f 184//119 183//119 234//119 
f 183//119 182//119 234//119 
f 182//119 181//119 234//119 
f 181//119 180//119 234//119 
f 180//119 179//119 234//119 
f 179//119 178//119 234//119 
f 178//119 177//119 234//119 
f 177//119 176//119 234//119 
f 176//119 233//119 234//119 
f 233//119 232//119 234//119 
f 232//119 231//119 234//119 
f 231//119 230//119 234//119 
f 230//119 229//119 234//119 
f 229//119 228//119 234//119 
f 228//119 227//119 234//119 
f 227//119 226//119 234//119 
f 226//119 225//119 234//119 
f 225//119 224//119 234//119 
f 224//119 223//119 234//119 
f 223//119 222//119 234//119 
f 222//119 221//119 234//119 
f 221//119 220//119 234//119 
f 220//119 219//119 234//119 
f 219//119 218//119 234//119 
f 218//119 217//119 234//119 
f 217//119 216//119 234//119 
f 216//119 215//119 234//119 
f 215//119 214//119 234//119 
f 214//119 213//119 234//119 
f 213//119 212//119 234//119 
f 212//119 211//119 234//119 
f 211//119 210//119 234//119 
f 210//119 209//119 234//119 
f 209//119 208//119 234//119 
f 208//119 207//119 234//119 
f 207//119 206//119 234//119 
f 206//119 205//119 234//119 
f 205//119 204//119 234//119 
